<?xml version="1.0" encoding="UTF-8" standalone="no"?>
<!-- Created with Inkscape (http://www.inkscape.org/) -->

<svg
   width="11.150934mm"
   height="11.151332mm"
   viewBox="0 0 11.150934 11.151332"
   version="1.1"
   id="svg5"
   inkscape:version="1.4.2 (f4327f4, 2025-05-13)"
   sodipodi:docname="UI.svg"
   xml:space="preserve"
   xmlns:inkscape="http://www.inkscape.org/namespaces/inkscape"
   xmlns:sodipodi="http://sodipodi.sourceforge.net/DTD/sodipodi-0.dtd"
   xmlns="http://www.w3.org/2000/svg"
   xmlns:svg="http://www.w3.org/2000/svg"><sodipodi:namedview
     id="namedview7"
     pagecolor="#434343"
     bordercolor="#000000"
     borderopacity="0.25"
     inkscape:showpageshadow="2"
     inkscape:pageopacity="0"
     inkscape:pagecheckerboard="false"
     inkscape:deskcolor="#d1d1d1"
     inkscape:document-units="mm"
     showgrid="true"
     showguides="true"
     inkscape:zoom="0.3834391"
     inkscape:cx="-142.1347"
     inkscape:cy="650.69003"
     inkscape:window-width="1920"
     inkscape:window-height="1051"
     inkscape:window-x="-9"
     inkscape:window-y="-9"
     inkscape:window-maximized="1"
     inkscape:current-layer="svg5"
     labelstyle="default"><inkscape:grid
       id="grid1"
       units="mm"
       originx="-78.29792"
       originy="-30.38483"
       spacingx="8"
       spacingy="8"
       empcolor="#0099e5"
       empopacity="0.30196078"
       color="#0099e5"
       opacity="0.14901961"
       empspacing="3"
       enabled="true"
       visible="true" /><inkscape:page
       x="0"
       y="0"
       width="11.150934"
       height="11.151332"
       id="page2"
       margin="0"
       bleed="0" /></sodipodi:namedview><defs
     id="defs2" /><g
     inkscape:label="Layer 1"
     inkscape:groupmode="layer"
     id="layer1"
     transform="translate(-78.297923,-30.384833)"><path
       id="rect304"
       style="fill:#ffffff;stroke:none;stroke-width:3.77049;paint-order:markers stroke fill"
       d="m 79.528151,30.384832 c -0.31417,0 -0.62838,0.120848 -0.86912,0.361528 -0.48147,0.48146 -0.48147,1.25606 0,1.73754 l 3.47647,3.47648 -3.47647,3.47646 c -0.48147,0.48147 -0.48147,1.25674 0,1.73822 0.48147,0.48147 1.25676,0.48147 1.73823,0 l 3.47647,-3.47646 3.47579,3.47646 c 0.48148,0.48147 1.25676,0.48147 1.73823,0 0.48148,-0.48148 0.48148,-1.25675 0,-1.73822 l -3.47646,-3.47646 3.47646,-3.47648 c 0.48148,-0.48148 0.48148,-1.25608 0,-1.73754 -0.48147,-0.481472 -1.25675,-0.481472 -1.73823,0 l -3.47579,3.4758 -3.47647,-3.4758 c -0.24072,-0.240644 -0.55494,-0.361528 -0.86911,-0.361528 z" /></g></svg>
